<svg id="logo" xmlns="http://www.w3.org/2000/svg" xmlns:xlink="http://www.w3.org/1999/xlink" width="98.318" height="98.318" viewBox="0 0 98.318 98.318">
  <defs>
    <clipPath id="clip-path">
      <rect id="Rectangle_200" data-name="Rectangle 200" width="98.318" height="98.318" fill="none"/>
    </clipPath>
  </defs>
  <rect id="Rectangle_199" data-name="Rectangle 199" width="98.318" height="98.318" fill="#ff7900"/>
  <g id="Group_572" data-name="Group 572">
    <g id="Group_571" data-name="Group 571" clip-path="url(#clip-path)">
      <path id="Path_1813" data-name="Path 1813" d="M61.814,146.9a8,8,0,0,1-4.495,1.349,3.768,3.768,0,0,1-4.037-3.947c0-3.042,2.8-4.654,8.56-5.3v-.757c0-.988-.749-1.56-2.133-1.56a4.061,4.061,0,0,0-3.313,1.56l-2.422-1.379a6.654,6.654,0,0,1,5.793-2.652c3.547,0,5.535,1.534,5.535,4.031,0,0-.005,9.829,0,9.854H62.13ZM56.8,144.044a1.64,1.64,0,0,0,1.614,1.764,4.993,4.993,0,0,0,3.314-1.43v-3.219c-3.345.416-4.928,1.275-4.928,2.885" transform="translate(-23.173 -58.369)" fill="#fff"/>
      <path id="Path_1814" data-name="Path 1814" d="M79.558,134.844l2.958-.41.327,1.614a7.621,7.621,0,0,1,4.671-1.874c2.794,0,4.237,1.483,4.237,4.421v9.465H88.174v-8.841c0-1.664-.431-2.418-1.727-2.418a5.275,5.275,0,0,0-3.344,1.508v9.751H79.558Z" transform="translate(-34.6 -58.353)" fill="#fff"/>
      <path id="Path_1815" data-name="Path 1815" d="M138.13,148.321c-4,0-6.4-2.576-6.4-7.047,0-4.526,2.42-7.1,6.338-7.1s6.253,2.5,6.253,6.918c0,.233-.028.469-.028.7H135.25c.027,2.575,1.095,3.874,3.2,3.874a3.468,3.468,0,0,0,3.083-1.743l2.619,1.456c-1.151,1.924-3.225,2.939-6.021,2.939m2.68-8.843a2.585,2.585,0,0,0-2.738-2.885c-1.613,0-2.622,1.041-2.766,2.885Z" transform="translate(-57.292 -58.353)" fill="#fff"/>
      <path id="Path_1816" data-name="Path 1816" d="M16.677,148.428c-3.536,0-6.723-2.254-6.723-7.171s3.187-7.175,6.723-7.175,6.727,2.255,6.727,7.175-3.189,7.171-6.727,7.171m0-11.322c-2.67,0-3.163,2.408-3.163,4.151s.494,4.148,3.163,4.148,3.168-2.408,3.168-4.148-.494-4.151-3.168-4.151" transform="translate(-4.329 -58.313)" fill="#fff"/>
      <path id="Path_1817" data-name="Path 1817" d="M38.094,134.5h3.4v1.6a5.276,5.276,0,0,1,3.747-1.876,2.835,2.835,0,0,1,.459.025V137.6h-.172c-1.556,0-3.257.24-3.8,1.449v9.04H38.094Z" transform="translate(-16.567 -58.374)" fill="#fff"/>
      <path id="Path_1818" data-name="Path 1818" d="M111.776,145.156c2.714-.019,2.943-2.78,2.943-4.584,0-2.123-1.039-3.853-2.966-3.853-1.286,0-2.721.94-2.721,4,0,1.679.119,4.456,2.744,4.435m6.379-10.722v12.872c0,2.272-.172,6.009-6.649,6.052-2.673.016-5.149-1.053-5.646-3.384l3.531-.569c.149.666.558,1.334,2.56,1.334,1.855,0,2.744-.887,2.744-3.013v-1.581l-.048-.05a3.574,3.574,0,0,1-3.51,1.976c-3.165,0-5.663-2.2-5.663-6.791,0-4.546,2.572-7.089,5.463-7.094,2.711,0,3.72,1.231,3.948,1.882l-.041-.006.293-1.628Z" transform="translate(-45.87 -58.358)" fill="#fff"/>
      <path id="Path_1819" data-name="Path 1819" d="M153.767,126.2h-1.407v3.889h-.74V126.2h-1.407v-.6h3.553Zm5.856,3.889h-.743v-3.748h-.023l-1.471,3.748h-.469l-1.47-3.748h-.023v3.748h-.74V125.6h1.144l1.342,3.41,1.318-3.41h1.135Z" transform="translate(-65.329 -54.623)" fill="#fff"/>
    </g>
  </g>
</svg>
